<svg xmlns="http://www.w3.org/2000/svg" xmlns:xlink="http://www.w3.org/1999/xlink" width="240" zoomAndPan="magnify" viewBox="0 0 180 179.999997" height="240" preserveAspectRatio="xMidYMid meet" version="1.0"><defs><clipPath id="087e9ab20b"><path d="M 27 30 L 153 30 L 153 150.347656 L 27 150.347656 Z M 27 30 " clip-rule="nonzero"/></clipPath></defs><g clip-path="url(#087e9ab20b)"><path fill="#000000" d="M 147.367188 93.199219 C 146.003906 89.9375 144.726562 86.851562 144.117188 83.542969 C 144.003906 82.925781 143.90625 82.28125 143.804688 81.625 C 143.296875 78.300781 142.722656 74.527344 139.734375 72.363281 C 136.8125 70.246094 132.945312 70.796875 130.296875 72.023438 C 128.195312 72.988281 126.421875 74.410156 124.695312 75.789062 C 124.179688 76.207031 123.660156 76.628906 123.117188 77.03125 C 116.824219 81.832031 108.921875 84.730469 100.980469 85.238281 C 104.421875 82.398438 107.144531 78.515625 108.804688 73.960938 C 110.683594 68.8125 111.210938 62.785156 110.3125 56.53125 C 109.539062 51.195312 107.859375 46.800781 105.308594 43.46875 C 102.816406 40.214844 99.179688 37.503906 94.175781 35.195312 C 84.160156 30.554688 73.601562 29.578125 64.433594 32.441406 C 54.082031 35.6875 46.109375 44.023438 44.089844 53.714844 C 43.15625 54.636719 41.476562 54.644531 40.160156 54.324219 C 39.410156 54.144531 38.667969 53.871094 37.878906 53.582031 C 36.824219 53.199219 35.742188 52.804688 34.570312 52.597656 C 32.433594 52.222656 29.453125 52.652344 28.066406 55.050781 C 27.074219 56.777344 27.222656 58.957031 28.503906 61.550781 C 30.785156 66.136719 34.667969 69.851562 39.328125 71.96875 C 38.480469 72.960938 37.683594 74.082031 37.21875 75.417969 C 36.40625 77.796875 37.046875 80.367188 38.773438 81.671875 C 39.945312 82.546875 41.34375 82.734375 42.675781 82.808594 C 43.292969 82.84375 43.917969 82.859375 44.535156 82.859375 C 46.058594 82.859375 47.589844 82.753906 49.089844 82.539062 C 49.851562 83.601562 50.753906 84.785156 51.945312 85.707031 C 52.507812 86.144531 53.160156 86.449219 53.804688 86.695312 C 51.128906 87.839844 48.382812 89.074219 45.835938 90.9375 C 42.613281 93.28125 39.886719 96.105469 37.699219 99.332031 C 33.265625 105.933594 31.238281 114.257812 32.160156 122.15625 C 32.976562 129.167969 35.992188 135.328125 40.636719 139.523438 C 46.027344 144.398438 53.257812 146.339844 59.621094 147.609375 C 68.878906 149.441406 78.640625 150.363281 88.828125 150.363281 C 98.332031 150.363281 108.207031 149.570312 118.386719 147.964844 C 125.714844 146.820312 133.332031 145.15625 139.410156 140.777344 C 145.59375 136.324219 150.011719 129.070312 151.535156 120.859375 C 152.882812 113.617188 152.054688 105.605469 149.15625 97.679688 C 148.601562 96.171875 147.976562 94.65625 147.367188 93.199219 " fill-opacity="1" fill-rule="nonzero"/><path fill="#000000" d="M 53.046875 72.972656 C 52.675781 72.980469 52.320312 72.996094 51.953125 72.996094 C 48.855469 72.996094 45.746094 72.660156 42.726562 71.996094 C 42.71875 72.007812 42.71875 72.015625 42.710938 72.023438 C 42.660156 72.210938 42.570312 72.378906 42.421875 72.535156 C 41.351562 73.695312 40.242188 74.890625 39.757812 76.289062 C 39.574219 76.84375 39.507812 77.507812 39.617188 78.109375 C 41.441406 78.570312 43.328125 78.015625 44.382812 77.574219 C 45.746094 77.03125 46.988281 76.261719 48.304688 75.449219 C 48.882812 75.082031 49.484375 74.714844 50.082031 74.375 C 50.890625 73.910156 51.898438 73.375 53.046875 72.972656 Z M 56.417969 70.957031 C 56.183594 70.304688 55.851562 69.726562 55.425781 69.242188 C 54.859375 68.625 54.125 68.148438 53.351562 67.660156 C 52.890625 67.355469 52.417969 67.050781 51.960938 66.699219 C 50.402344 65.511719 49.214844 63.910156 48.519531 62.085938 C 48.296875 61.496094 48.125 60.886719 47.960938 60.308594 C 47.714844 59.429688 47.480469 58.597656 47.078125 57.875 C 46.667969 57.125 45.914062 56.441406 45.152344 56.285156 C 43.695312 57.207031 41.699219 57.453125 39.535156 56.933594 C 38.628906 56.710938 37.78125 56.40625 36.949219 56.105469 C 35.972656 55.746094 35.042969 55.40625 34.113281 55.246094 C 32.769531 55.015625 31.035156 55.273438 30.390625 56.390625 C 29.746094 57.507812 30.320312 59.164062 30.910156 60.351562 C 32.933594 64.441406 36.414062 67.730469 40.574219 69.582031 C 45.671875 71.078125 51.136719 71.558594 56.417969 70.957031 Z M 56.757812 74.117188 C 54.566406 74.027344 52.402344 75.097656 50.972656 75.921875 C 50.386719 76.261719 49.8125 76.609375 49.242188 76.964844 C 47.917969 77.78125 46.558594 78.628906 45.054688 79.238281 C 43.96875 79.679688 42.890625 79.9375 41.863281 80.035156 C 42.175781 80.078125 42.503906 80.117188 42.828125 80.132812 C 44.222656 80.214844 45.628906 80.175781 47.023438 80.070312 L 53.105469 78.257812 C 53.976562 78.003906 54.957031 77.710938 55.59375 77.113281 C 56.175781 76.566406 56.558594 75.671875 56.722656 74.464844 C 56.742188 74.347656 56.742188 74.230469 56.757812 74.117188 Z M 148.898438 120.367188 C 150.15625 113.597656 149.371094 106.078125 146.636719 98.601562 C 146.09375 97.144531 145.484375 95.660156 144.890625 94.226562 C 143.535156 90.976562 142.132812 87.609375 141.480469 84.035156 C 141.355469 83.378906 141.253906 82.710938 141.148438 82.027344 C 140.683594 78.957031 140.242188 76.050781 138.152344 74.535156 C 136.175781 73.09375 133.382812 73.550781 131.421875 74.453125 C 129.625 75.285156 128.039062 76.546875 126.378906 77.878906 C 125.839844 78.316406 125.296875 78.75 124.75 79.160156 C 117.085938 85.007812 107.21875 88.203125 97.550781 87.988281 C 97.03125 88.234375 96.445312 88.503906 95.816406 88.820312 C 93.832031 89.773438 92.257812 90.722656 91.96875 90.402344 C 91.722656 90.128906 92.773438 88.78125 94.644531 87.734375 C 94.652344 87.664062 94.652344 87.59375 94.671875 87.503906 C 94.71875 87.289062 94.824219 87.058594 94.972656 86.8125 C 94.421875 87 93.914062 87.15625 93.425781 87.261719 C 91.46875 87.707031 90.214844 87.636719 90.191406 87.460938 C 90.160156 87.222656 91.335938 86.921875 93.113281 86.242188 C 94 85.902344 95.039062 85.4375 96.140625 84.859375 C 97.238281 84.257812 98.402344 83.535156 99.558594 82.671875 C 100.226562 82.144531 100.855469 81.609375 101.433594 81.0625 C 103.492188 78.800781 105.175781 76.074219 106.28125 73.042969 C 108.019531 68.304688 108.492188 62.730469 107.652344 56.917969 C 106.945312 52.035156 105.441406 48.066406 103.179688 45.105469 C 100.949219 42.199219 97.640625 39.753906 93.054688 37.628906 C 83.640625 33.265625 73.765625 32.335938 65.226562 35.007812 C 55.753906 37.96875 48.472656 45.578125 46.691406 54.390625 C 46.660156 54.539062 46.59375 54.679688 46.523438 54.808594 C 46.511719 54.835938 46.503906 54.859375 46.496094 54.886719 C 47.398438 55.363281 48.167969 56.136719 48.652344 57.015625 C 49.152344 57.921875 49.417969 58.894531 49.679688 59.824219 C 49.84375 60.398438 49.992188 60.933594 50.191406 61.445312 C 50.765625 62.945312 51.773438 64.304688 53.054688 65.289062 C 53.449219 65.59375 53.867188 65.859375 54.324219 66.148438 C 55.152344 66.691406 56.023438 67.25 56.75 68.042969 C 58.214844 69.664062 58.847656 72.085938 58.492188 74.707031 C 58.277344 76.332031 57.714844 77.574219 56.820312 78.414062 C 55.878906 79.300781 54.625 79.679688 53.617188 79.972656 L 51.078125 80.726562 C 51.101562 80.757812 51.128906 80.785156 51.15625 80.816406 C 51.542969 81.367188 51.976562 81.949219 52.460938 82.496094 C 53.554688 83.128906 55.0625 83.953125 56.882812 84.539062 C 60.46875 85.765625 63.652344 85.492188 63.710938 85.929688 C 63.746094 86.125 62.964844 86.457031 61.613281 86.597656 C 60.710938 86.695312 59.539062 86.671875 58.269531 86.441406 C 58.277344 86.546875 58.269531 86.652344 58.261719 86.761719 C 58.566406 86.902344 58.878906 87.058594 59.199219 87.214844 C 61.652344 88.449219 63.59375 89.570312 63.441406 89.964844 C 63.289062 90.34375 61.042969 89.828125 58.527344 88.566406 C 58.15625 88.382812 57.792969 88.191406 57.457031 87.996094 C 57.339844 88.078125 57.203125 88.15625 57.054688 88.21875 C 56.507812 88.457031 55.960938 88.695312 55.425781 88.925781 C 52.578125 90.144531 49.894531 91.289062 47.40625 93.101562 C 44.457031 95.257812 41.933594 97.859375 39.929688 100.839844 C 35.839844 106.910156 33.980469 114.574219 34.828125 121.851562 C 35.574219 128.210938 38.273438 133.78125 42.433594 137.53125 C 47.34375 141.964844 54.148438 143.78125 60.148438 144.96875 C 77.71875 148.464844 97.167969 148.582031 117.976562 145.320312 C 124.976562 144.21875 132.21875 142.644531 137.847656 138.59375 C 143.476562 134.550781 147.5 127.90625 148.898438 120.367188 Z M 149.15625 97.679688 C 152.054688 105.605469 152.882812 113.617188 151.535156 120.859375 C 150.011719 129.070312 145.59375 136.324219 139.410156 140.777344 C 133.332031 145.15625 125.714844 146.820312 118.386719 147.964844 C 108.207031 149.570312 98.332031 150.359375 88.828125 150.359375 C 78.640625 150.359375 68.878906 149.441406 59.621094 147.609375 C 53.257812 146.339844 46.027344 144.398438 40.636719 139.523438 C 35.992188 135.328125 32.976562 129.167969 32.160156 122.15625 C 31.238281 114.257812 33.265625 105.933594 37.699219 99.332031 C 39.886719 96.105469 42.613281 93.28125 45.835938 90.9375 C 48.382812 89.074219 51.128906 87.839844 53.804688 86.695312 C 53.160156 86.449219 52.507812 86.144531 51.945312 85.707031 C 50.753906 84.785156 49.851562 83.601562 49.089844 82.539062 C 47.589844 82.753906 46.058594 82.859375 44.535156 82.859375 C 43.917969 82.859375 43.292969 82.84375 42.675781 82.808594 C 41.34375 82.734375 39.945312 82.546875 38.773438 81.671875 C 37.046875 80.367188 36.40625 77.796875 37.21875 75.417969 C 37.683594 74.082031 38.480469 72.960938 39.328125 71.96875 C 34.667969 69.851562 30.785156 66.136719 28.503906 61.550781 C 27.222656 58.957031 27.074219 56.777344 28.066406 55.050781 C 29.453125 52.652344 32.433594 52.222656 34.570312 52.597656 C 35.742188 52.804688 36.824219 53.199219 37.878906 53.582031 C 38.667969 53.871094 39.410156 54.144531 40.160156 54.324219 C 41.476562 54.644531 43.15625 54.636719 44.089844 53.714844 C 46.109375 44.023438 54.082031 35.6875 64.433594 32.441406 C 73.601562 29.578125 84.160156 30.554688 94.175781 35.195312 C 99.179688 37.503906 102.816406 40.214844 105.308594 43.46875 C 107.859375 46.800781 109.539062 51.195312 110.3125 56.53125 C 111.210938 62.785156 110.683594 68.8125 108.804688 73.960938 C 107.144531 78.515625 104.421875 82.398438 100.980469 85.238281 C 108.921875 84.730469 116.824219 81.832031 123.117188 77.03125 C 123.660156 76.628906 124.179688 76.207031 124.695312 75.789062 C 126.421875 74.410156 128.195312 72.988281 130.296875 72.023438 C 132.945312 70.796875 136.8125 70.246094 139.734375 72.363281 C 142.722656 74.527344 143.296875 78.300781 143.804688 81.625 C 143.90625 82.28125 144.003906 82.925781 144.117188 83.542969 C 144.726562 86.851562 146.003906 89.9375 147.367188 93.199219 C 147.976562 94.65625 148.601562 96.171875 149.15625 97.679688 " fill-opacity="1" fill-rule="nonzero"/></g><path fill="#fcce0b" d="M 66.410156 56.632812 C 66.742188 55.476562 67.726562 51.570312 66.304688 49.441406 C 64.988281 47.492188 62.007812 47.9375 60.363281 49.011719 C 58.683594 50.101562 57.828125 51.847656 57.417969 53.117188 C 56.90625 54.664062 56.757812 56.25 56.617188 57.785156 C 56.507812 58.992188 56.460938 60.253906 57.257812 61.273438 C 57.917969 62.113281 58.941406 62.453125 59.949219 62.453125 C 60.515625 62.453125 61.070312 62.34375 61.570312 62.175781 C 63.816406 61.390625 65.621094 59.3125 66.410156 56.632812 Z M 132.585938 115.90625 C 132.6875 114.511719 132.695312 113.125 132.621094 111.757812 C 132.597656 111.058594 132.53125 110.40625 132.460938 109.699219 C 132.375 108.984375 132.234375 108.25 131.988281 107.507812 C 131.726562 106.765625 131.332031 105.976562 130.671875 105.316406 C 130.011719 104.644531 129.089844 104.199219 128.160156 104.101562 C 127.226562 103.984375 126.394531 104.183594 125.6875 104.414062 C 124.984375 104.667969 124.367188 104.96875 123.792969 105.285156 C 123.257812 105.574219 122.730469 105.863281 122.203125 106.15625 C 121.699219 106.429688 121.183594 106.675781 120.664062 106.890625 C 119.621094 107.359375 118.558594 107.722656 117.496094 108.027344 C 115.375 108.628906 113.21875 108.921875 111.144531 108.957031 C 109.046875 109 107.054688 108.75 105.148438 108.3125 C 103.242188 107.875 101.425781 107.257812 99.683594 106.660156 C 96.191406 105.425781 92.890625 104.304688 89.839844 103.941406 C 86.792969 103.523438 84.050781 103.902344 82.023438 104.691406 C 79.988281 105.488281 78.640625 106.585938 77.90625 107.445312 C 77.164062 108.304688 76.941406 108.867188 77.011719 108.921875 C 77.109375 108.992188 77.496094 108.554688 78.324219 107.886719 C 79.148438 107.210938 80.480469 106.371094 82.398438 105.8125 C 84.308594 105.246094 86.769531 105.078125 89.582031 105.605469 C 92.398438 106.09375 95.46875 107.292969 98.9375 108.660156 C 100.683594 109.335938 102.554688 110.039062 104.59375 110.578125 C 106.632812 111.113281 108.851562 111.453125 111.144531 111.460938 C 113.441406 111.476562 115.820312 111.210938 118.191406 110.585938 C 119.375 110.28125 120.5625 109.886719 121.726562 109.394531 C 122.316406 109.164062 122.886719 108.894531 123.460938 108.601562 C 124.042969 108.3125 124.597656 108 125.101562 107.730469 C 126.109375 107.195312 127.148438 106.800781 127.808594 106.910156 C 128.140625 106.957031 128.417969 107.097656 128.648438 107.328125 C 128.886719 107.574219 129.097656 107.953125 129.25 108.429688 C 129.410156 108.902344 129.511719 109.457031 129.570312 110.027344 C 129.632812 110.621094 129.675781 111.261719 129.707031 111.890625 C 129.757812 113.140625 129.734375 114.414062 129.632812 115.691406 C 129.25 120.78125 127.570312 125.976562 124.34375 130.285156 C 122.753906 132.441406 120.839844 134.320312 118.722656 135.820312 C 116.609375 137.324219 114.261719 138.414062 111.820312 139.164062 C 106.9375 140.6875 101.839844 140.949219 96.996094 140.925781 C 92.160156 140.910156 87.585938 140.464844 83.523438 139.300781 C 79.472656 138.15625 75.957031 136.265625 73.261719 133.945312 C 70.550781 131.644531 68.726562 128.898438 67.761719 126.261719 C 66.777344 123.613281 66.597656 121.117188 66.742188 119.125 C 66.902344 117.132812 67.382812 115.609375 67.761719 114.609375 C 68.144531 113.609375 68.410156 113.089844 68.304688 113.023438 C 68.246094 112.972656 67.800781 113.386719 67.214844 114.351562 C 66.640625 115.304688 65.933594 116.851562 65.570312 118.992188 C 65.242188 121.109375 65.242188 123.839844 66.160156 126.804688 C 67.070312 129.769531 68.96875 132.90625 71.839844 135.535156 C 74.695312 138.191406 78.46875 140.355469 82.808594 141.699219 C 87.148438 143.058594 91.96875 143.609375 96.964844 143.707031 C 101.925781 143.796875 107.300781 143.617188 112.699219 141.992188 C 115.382812 141.1875 118.046875 139.96875 120.445312 138.273438 C 122.851562 136.59375 124.992188 134.488281 126.78125 132.082031 C 130.367188 127.257812 132.210938 121.46875 132.585938 115.90625 Z M 146.636719 98.601562 C 149.371094 106.078125 150.15625 113.597656 148.898438 120.367188 C 147.5 127.90625 143.476562 134.550781 137.847656 138.59375 C 132.21875 142.644531 124.976562 144.21875 117.976562 145.320312 C 97.167969 148.582031 77.71875 148.464844 60.148438 144.96875 C 54.148438 143.78125 47.34375 141.964844 42.433594 137.53125 C 38.273438 133.78125 35.574219 128.210938 34.828125 121.851562 C 33.980469 114.574219 35.839844 106.910156 39.929688 100.839844 C 41.933594 97.859375 44.457031 95.257812 47.40625 93.101562 C 49.894531 91.289062 52.578125 90.144531 55.425781 88.925781 C 55.960938 88.695312 56.507812 88.457031 57.054688 88.21875 C 57.203125 88.15625 57.339844 88.078125 57.457031 87.996094 C 57.792969 88.191406 58.15625 88.382812 58.527344 88.566406 C 61.042969 89.828125 63.289062 90.34375 63.441406 89.964844 C 63.59375 89.570312 61.652344 88.449219 59.199219 87.214844 C 58.878906 87.058594 58.566406 86.902344 58.261719 86.761719 C 58.269531 86.652344 58.277344 86.546875 58.269531 86.441406 C 59.539062 86.671875 60.710938 86.695312 61.613281 86.597656 C 62.964844 86.457031 63.746094 86.125 63.710938 85.929688 C 63.652344 85.492188 60.46875 85.765625 56.882812 84.539062 C 55.0625 83.953125 53.554688 83.128906 52.460938 82.496094 C 51.976562 81.949219 51.542969 81.367188 51.15625 80.816406 C 51.128906 80.785156 51.101562 80.757812 51.078125 80.726562 L 53.617188 79.972656 C 54.625 79.679688 55.878906 79.300781 56.820312 78.414062 C 57.714844 77.574219 58.277344 76.332031 58.492188 74.707031 C 58.847656 72.085938 58.214844 69.664062 56.75 68.042969 C 56.023438 67.25 55.152344 66.691406 54.324219 66.148438 C 53.867188 65.859375 53.449219 65.59375 53.054688 65.289062 C 51.773438 64.304688 50.765625 62.945312 50.191406 61.445312 C 49.992188 60.933594 49.84375 60.398438 49.679688 59.824219 C 49.417969 58.894531 49.152344 57.921875 48.652344 57.015625 C 48.167969 56.136719 47.398438 55.363281 46.496094 54.886719 C 46.503906 54.859375 46.511719 54.835938 46.523438 54.808594 C 46.59375 54.679688 46.660156 54.539062 46.691406 54.390625 C 48.472656 45.578125 55.753906 37.96875 65.226562 35.007812 C 73.765625 32.335938 83.640625 33.265625 93.054688 37.628906 C 97.640625 39.753906 100.949219 42.199219 103.179688 45.105469 C 105.441406 48.066406 106.945312 52.035156 107.652344 56.917969 C 108.492188 62.730469 108.019531 68.304688 106.28125 73.042969 C 105.175781 76.074219 103.492188 78.800781 101.433594 81.0625 C 100.855469 81.609375 100.226562 82.144531 99.558594 82.671875 C 98.402344 83.535156 97.238281 84.257812 96.140625 84.859375 C 95.039062 85.4375 94 85.902344 93.113281 86.242188 C 91.335938 86.921875 90.160156 87.222656 90.191406 87.460938 C 90.214844 87.636719 91.46875 87.707031 93.425781 87.261719 C 93.914062 87.15625 94.421875 87 94.972656 86.8125 C 94.824219 87.058594 94.71875 87.289062 94.671875 87.503906 C 94.652344 87.59375 94.652344 87.664062 94.644531 87.734375 C 92.773438 88.78125 91.722656 90.128906 91.96875 90.402344 C 92.257812 90.722656 93.832031 89.773438 95.816406 88.820312 C 96.445312 88.503906 97.03125 88.234375 97.550781 87.988281 C 107.21875 88.203125 117.085938 85.007812 124.75 79.160156 C 125.296875 78.75 125.839844 78.316406 126.378906 77.878906 C 128.039062 76.546875 129.625 75.285156 131.421875 74.453125 C 133.382812 73.550781 136.175781 73.09375 138.152344 74.535156 C 140.242188 76.050781 140.683594 78.957031 141.148438 82.027344 C 141.253906 82.710938 141.355469 83.378906 141.480469 84.035156 C 142.132812 87.609375 143.535156 90.976562 144.890625 94.226562 C 145.484375 95.660156 146.09375 97.144531 146.636719 98.601562 " fill-opacity="1" fill-rule="nonzero"/><path fill="#000000" d="M 132.621094 111.757812 C 132.695312 113.125 132.6875 114.511719 132.585938 115.90625 C 132.210938 121.46875 130.367188 127.257812 126.78125 132.082031 C 124.992188 134.488281 122.851562 136.59375 120.445312 138.273438 C 118.046875 139.96875 115.382812 141.1875 112.699219 141.992188 C 107.300781 143.617188 101.925781 143.796875 96.964844 143.707031 C 91.96875 143.609375 87.148438 143.058594 82.808594 141.699219 C 78.46875 140.355469 74.695312 138.191406 71.839844 135.535156 C 68.96875 132.90625 67.070312 129.769531 66.160156 126.804688 C 65.242188 123.839844 65.242188 121.109375 65.570312 118.992188 C 65.933594 116.851562 66.640625 115.304688 67.214844 114.351562 C 67.800781 113.386719 68.246094 112.972656 68.304688 113.023438 C 68.410156 113.089844 68.144531 113.609375 67.761719 114.609375 C 67.382812 115.609375 66.902344 117.132812 66.742188 119.125 C 66.597656 121.117188 66.777344 123.613281 67.761719 126.261719 C 68.726562 128.898438 70.550781 131.644531 73.261719 133.945312 C 75.957031 136.265625 79.472656 138.15625 83.523438 139.300781 C 87.585938 140.464844 92.160156 140.910156 96.996094 140.925781 C 101.839844 140.949219 106.9375 140.6875 111.820312 139.164062 C 114.261719 138.414062 116.609375 137.324219 118.722656 135.820312 C 120.839844 134.320312 122.753906 132.441406 124.34375 130.285156 C 127.570312 125.976562 129.25 120.78125 129.632812 115.691406 C 129.734375 114.414062 129.757812 113.140625 129.707031 111.890625 C 129.675781 111.261719 129.632812 110.621094 129.570312 110.027344 C 129.511719 109.457031 129.410156 108.902344 129.25 108.429688 C 129.097656 107.953125 128.886719 107.574219 128.648438 107.328125 C 128.417969 107.097656 128.140625 106.957031 127.808594 106.910156 C 127.148438 106.800781 126.109375 107.195312 125.101562 107.730469 C 124.597656 108 124.042969 108.3125 123.460938 108.601562 C 122.886719 108.894531 122.316406 109.164062 121.726562 109.394531 C 120.5625 109.886719 119.375 110.28125 118.191406 110.585938 C 115.820312 111.210938 113.441406 111.476562 111.144531 111.460938 C 108.851562 111.453125 106.632812 111.113281 104.59375 110.578125 C 102.554688 110.039062 100.683594 109.335938 98.9375 108.660156 C 95.46875 107.292969 92.398438 106.09375 89.582031 105.605469 C 86.769531 105.078125 84.308594 105.246094 82.398438 105.8125 C 80.480469 106.371094 79.148438 107.210938 78.324219 107.886719 C 77.496094 108.554688 77.109375 108.992188 77.011719 108.921875 C 76.941406 108.867188 77.164062 108.304688 77.90625 107.445312 C 78.640625 106.585938 79.988281 105.488281 82.023438 104.691406 C 84.050781 103.902344 86.792969 103.523438 89.839844 103.941406 C 92.890625 104.304688 96.191406 105.425781 99.683594 106.660156 C 101.425781 107.257812 103.242188 107.875 105.148438 108.3125 C 107.054688 108.75 109.046875 109 111.144531 108.957031 C 113.21875 108.921875 115.375 108.628906 117.496094 108.027344 C 118.558594 107.722656 119.621094 107.359375 120.664062 106.890625 C 121.183594 106.675781 121.699219 106.429688 122.203125 106.15625 C 122.730469 105.863281 123.257812 105.574219 123.792969 105.285156 C 124.367188 104.96875 124.984375 104.667969 125.6875 104.414062 C 126.394531 104.183594 127.226562 103.984375 128.160156 104.101562 C 129.089844 104.199219 130.011719 104.644531 130.671875 105.316406 C 131.332031 105.976562 131.726562 106.765625 131.988281 107.507812 C 132.234375 108.25 132.375 108.984375 132.460938 109.699219 C 132.53125 110.40625 132.597656 111.058594 132.621094 111.757812 " fill-opacity="1" fill-rule="nonzero"/><path fill="#000000" d="M 64.542969 51.3125 C 64.738281 50.808594 64.558594 50.570312 64.492188 50.488281 C 64.359375 50.316406 64.015625 50.203125 63.574219 50.183594 C 63.554688 50.183594 63.527344 50.183594 63.503906 50.183594 C 62.722656 50.183594 61.9375 50.496094 61.6875 50.800781 C 61.398438 51.132812 61.390625 51.722656 61.660156 52.117188 C 61.949219 52.519531 62.519531 52.742188 63.054688 52.652344 C 63.539062 52.570312 64.273438 52 64.542969 51.3125 Z M 64.691406 56.128906 C 64.945312 55.253906 65.132812 54.300781 65.210938 53.394531 C 64.667969 53.921875 63.992188 54.308594 63.351562 54.421875 C 63.171875 54.449219 62.992188 54.457031 62.820312 54.457031 C 61.785156 54.457031 60.773438 53.96875 60.191406 53.136719 C 59.992188 52.851562 59.859375 52.535156 59.769531 52.214844 C 59.476562 52.714844 59.261719 53.230469 59.117188 53.683594 C 58.671875 55.03125 58.527344 56.515625 58.402344 57.957031 C 58.3125 58.832031 58.277344 59.675781 58.671875 60.164062 C 59.144531 60.773438 60.199219 60.761719 60.980469 60.484375 C 62.652344 59.898438 64.074219 58.226562 64.691406 56.128906 Z M 66.304688 49.441406 C 67.726562 51.570312 66.742188 55.476562 66.410156 56.632812 C 65.621094 59.3125 63.816406 61.390625 61.570312 62.175781 C 61.070312 62.34375 60.515625 62.453125 59.949219 62.453125 C 58.941406 62.453125 57.917969 62.113281 57.257812 61.273438 C 56.460938 60.253906 56.507812 58.992188 56.617188 57.785156 C 56.757812 56.25 56.90625 54.664062 57.417969 53.117188 C 57.828125 51.847656 58.683594 50.101562 60.363281 49.011719 C 62.007812 47.9375 64.988281 47.492188 66.304688 49.441406 " fill-opacity="1" fill-rule="nonzero"/><path fill="#333333" d="M 65.210938 53.394531 C 65.132812 54.300781 64.945312 55.253906 64.691406 56.128906 C 64.074219 58.226562 62.652344 59.898438 60.980469 60.484375 C 60.199219 60.761719 59.144531 60.773438 58.671875 60.164062 C 58.277344 59.675781 58.3125 58.832031 58.402344 57.957031 C 58.527344 56.515625 58.671875 55.03125 59.117188 53.683594 C 59.261719 53.230469 59.476562 52.714844 59.769531 52.214844 C 59.859375 52.535156 59.992188 52.851562 60.191406 53.136719 C 60.773438 53.96875 61.785156 54.457031 62.820312 54.457031 C 62.992188 54.457031 63.171875 54.449219 63.351562 54.421875 C 63.992188 54.308594 64.667969 53.921875 65.210938 53.394531 " fill-opacity="1" fill-rule="nonzero"/><path fill="#ffffff" d="M 64.492188 50.488281 C 64.558594 50.570312 64.738281 50.808594 64.542969 51.3125 C 64.273438 52 63.539062 52.570312 63.054688 52.652344 C 62.519531 52.742188 61.949219 52.519531 61.660156 52.117188 C 61.390625 51.722656 61.398438 51.132812 61.6875 50.800781 C 61.9375 50.496094 62.722656 50.183594 63.503906 50.183594 C 63.527344 50.183594 63.554688 50.183594 63.574219 50.183594 C 64.015625 50.203125 64.359375 50.316406 64.492188 50.488281 " fill-opacity="1" fill-rule="nonzero"/><path fill="#ff6622" d="M 50.972656 75.921875 C 52.402344 75.097656 54.566406 74.027344 56.757812 74.117188 C 56.742188 74.230469 56.742188 74.347656 56.722656 74.464844 C 56.558594 75.671875 56.175781 76.566406 55.59375 77.113281 C 54.957031 77.710938 53.976562 78.003906 53.105469 78.257812 L 47.023438 80.070312 C 45.628906 80.175781 44.222656 80.214844 42.828125 80.132812 C 42.503906 80.117188 42.175781 80.078125 41.863281 80.035156 C 42.890625 79.9375 43.96875 79.679688 45.054688 79.238281 C 46.558594 78.628906 47.917969 77.78125 49.242188 76.964844 C 49.8125 76.609375 50.386719 76.261719 50.972656 75.921875 " fill-opacity="1" fill-rule="nonzero"/><path fill="#ff6622" d="M 55.425781 69.242188 C 55.851562 69.726562 56.183594 70.304688 56.417969 70.957031 C 51.136719 71.558594 45.671875 71.078125 40.574219 69.582031 C 36.414062 67.730469 32.933594 64.441406 30.910156 60.351562 C 30.320312 59.164062 29.746094 57.507812 30.390625 56.390625 C 31.035156 55.273438 32.769531 55.015625 34.113281 55.246094 C 35.042969 55.40625 35.972656 55.746094 36.949219 56.105469 C 37.78125 56.40625 38.628906 56.710938 39.535156 56.933594 C 41.699219 57.453125 43.695312 57.207031 45.152344 56.285156 C 45.914062 56.441406 46.667969 57.125 47.078125 57.875 C 47.480469 58.597656 47.714844 59.429688 47.960938 60.308594 C 48.125 60.886719 48.296875 61.496094 48.519531 62.085938 C 49.214844 63.910156 50.402344 65.511719 51.960938 66.699219 C 52.417969 67.050781 52.890625 67.355469 53.351562 67.660156 C 54.125 68.148438 54.859375 68.625 55.425781 69.242188 " fill-opacity="1" fill-rule="nonzero"/><path fill="#df5028" d="M 51.953125 72.996094 C 52.320312 72.996094 52.675781 72.980469 53.046875 72.972656 C 51.898438 73.375 50.890625 73.910156 50.082031 74.375 C 49.484375 74.714844 48.882812 75.082031 48.304688 75.449219 C 46.988281 76.261719 45.746094 77.03125 44.382812 77.574219 C 43.328125 78.015625 41.441406 78.570312 39.617188 78.109375 C 39.507812 77.507812 39.574219 76.84375 39.757812 76.289062 C 40.242188 74.890625 41.351562 73.695312 42.421875 72.535156 C 42.570312 72.378906 42.660156 72.210938 42.710938 72.023438 C 42.71875 72.015625 42.71875 72.007812 42.726562 71.996094 C 45.746094 72.660156 48.855469 72.996094 51.953125 72.996094 " fill-opacity="1" fill-rule="nonzero"/></svg>